<?xml version="1.0" encoding="UTF-8"?>
<svg xmlns="http://www.w3.org/2000/svg" viewBox="0 0 48 48" width="48" height="48" aria-hidden="true">
  <path fill="#FFC107" d="M43.611,20.083H42V20H24v8h11.303c-1.649,4.657-6.08,8-11.303,8c-6.627,0-12-5.373-12-12  s5.373-12,12-12c3.059,0,5.842,1.154,7.961,3.039l5.657-5.657C33.64,6.053,29.082,4,24,4C12.954,4,4,12.954,4,24s8.954,20,20,20  s20-8.954,20-20C44,22.659,43.862,21.35,43.611,20.083z"/>
  <path fill="#FF3D00" d="M6.306,14.691l6.571,4.819C14.655,16.108,18.961,12,24,12c3.059,0,5.842,1.154,7.961,3.039l5.657-5.657  C33.64,6.053,29.082,4,24,4C16.318,4,9.656,8.337,6.306,14.691z"/>
  <path fill="#4CAF50" d="M24,44c5.166,0,9.859-1.977,13.409-5.196l-6.191-5.238C29.211,35.091,26.715,36,24,36  c-5.201,0-9.619-3.317-11.283-7.957l-6.51,5.021C9.505,39.556,16.227,44,24,44z"/>
  <path fill="#1976D2" d="M43.611,20.083H42V20H24v8h11.303c-0.792,2.236-2.231,4.166-3.994,5.566  c0.001-0.001,0.002-0.001,0.003-0.002l6.191,5.238C36.99,39.205,44,34,44,24C44,22.659,43.862,21.35,43.611,20.083z"/>
</svg>


